<?xml version="1.0" encoding="UTF-8"?>
<svg id="Layer_1" xmlns="http://www.w3.org/2000/svg" version="1.1" viewBox="0 0 512 512">
  <!-- Generator: Adobe Illustrator 30.4.0, SVG Export Plug-In . SVG Version: 2.1.4 Build 226)  -->
  <path d="M470.95,385.65h0s-66.83-105.44-66.83-105.44l1.2-2.46c25.01-51.24,21.79-110.9-8.62-159.58-30.39-48.64-82.66-77.69-139.84-77.69s-109.46,29.05-139.85,77.7c-30.4,48.68-33.63,108.33-8.62,159.57l1.2,2.46-66.83,105.44c-2.45,3.85-2.58,8.55-.38,12.56,2.21,4.01,6.25,6.4,10.81,6.4h60.25l30.53,61.06c1.96,3.91,5.58,6.38,9.92,6.77,4.34.38,8.41-1.44,11-4.89l73.43-97.91,2.74.26c10.6,1.01,20.93,1.01,31.56,0l2.74-.26,73.43,97.91c2.58,3.45,6.69,5.28,11.01,4.89,4.35-.39,7.96-2.86,9.92-6.77l30.53-61.06h60.25c4.56,0,8.61-2.39,10.81-6.4,2.21-4.01,2.06-8.7-.38-12.56ZM157.14,436.75l-25-50.01c-2.1-4.21-6.34-6.83-11.05-6.83h-45.43l48.33-76.25,4.3,5.34c20.04,24.86,46.53,43.29,76.63,53.29l6.47,2.15-54.24,72.32ZM256.86,345.97c-73.45,0-134.95-57.38-140.02-130.63l-.36-5.25h31.89v34.49h12.03v-34.49h34.24v-12.25h-34.24v-34.07h-12.03v34.07h-31.77l.5-5.36c6.64-71.38,68.03-127.3,139.77-127.3,77.41,0,140.39,62.98,140.39,140.4s-62.98,140.39-140.39,140.39ZM392.63,379.91c-4.71,0-8.94,2.62-11.05,6.83l-25.01,50.01-54.24-72.32,6.47-2.15c30.1-10.01,56.6-28.43,76.63-53.29l4.3-5.34,48.33,76.25h-45.43Z"/>
  <g>
    <polygon points="173.86 268.08 199 266.92 199 222.92 173.86 222.92 173.86 268.08"/>
    <path d="M326.61,148.69l-39.09-34.56c-15.53-13.73-38.89-13.69-54.37.09l-38.78,34.52c-10.8,9.62-17.78,22.62-19.85,36.88h25.59c1.77-6.97,5.61-13.34,10.98-18.11l38.77-34.52c5.99-5.33,15.03-5.34,21.02-.03l39.09,34.56c7.74,6.84,12.18,16.69,12.18,27.01v72.39l25.13,1.16v-73.55c0-17.53-7.53-34.23-20.66-45.84Z"/>
    <polygon points="163.5 160.25 146.3 160.25 146.3 195.56 110.77 195.56 110.77 212.98 146.3 212.98 146.3 248.73 163.5 248.73 163.5 212.98 199 212.98 199 195.56 163.5 195.56 163.5 160.25"/>
    <rect x="236.62" y="188.08" width="15.83" height="17.25" rx="1.9" ry="1.9"/>
    <rect x="268.55" y="188.08" width="15.83" height="17.25" rx="1.9" ry="1.9"/>
    <rect x="236.62" y="220.72" width="15.83" height="17.25" rx="1.9" ry="1.9"/>
    <rect x="268.55" y="220.72" width="15.83" height="17.25" rx="1.9" ry="1.9"/>
  </g>
</svg>